<svg xmlns="http://www.w3.org/2000/svg" version="1.1" viewBox="0 0 16 16">
  <path
     style="stroke-width:0.0357143"
     d="M 14.857143,0 H 1.1392857 C 0.51071429,0 0,0.517857 0,1.153571 V 14.846429 C 0,15.482143 0.51071429,16 1.1392857,16 H 14.857143 C 15.485714,16 16,15.482143 16,14.846429 V 1.153571 C 16,0.517857 15.485714,0 14.857143,0 Z M 4.8357143,13.714286 H 2.4642857 V 6.078571 h 2.375 v 7.635715 z M 3.65,5.035714 c -0.7607143,0 -1.375,-0.617857 -1.375,-1.375 0,-0.757143 0.6142857,-1.375 1.375,-1.375 0.7571429,0 1.375,0.617857 1.375,1.375 0,0.760715 -0.6142857,1.375 -1.375,1.375 z m 10.075,8.678572 H 11.353571 V 10 c 0,-0.885714 -0.01786,-2.025 -1.232142,-2.025 -1.2357147,0 -1.4250004,0.964286 -1.4250004,1.960714 v 3.778572 H 6.325 V 6.078571 H 8.6 V 7.121429 H 8.632143 C 8.95,6.521429 9.725,5.889286 10.878571,5.889286 c 2.4,0 2.846429,1.582143 2.846429,3.639285 z"
     fill="#ffffff" />
</svg>
