<svg xmlns="http://www.w3.org/2000/svg" version="1.1" viewBox="0 0 16 16">
  <path
     style="stroke-width:0.033723"
     id="path2"
     class=""
     d="m 14.215831,6.2312291 c -0.505844,0 -0.950988,0.2090824 -1.278101,0.5361952 C 11.73382,5.9344664 10.111744,5.3982712 8.3143079,5.3409419 L 9.2484348,1.1323127 12.222803,1.8000279 c 0,0.7284162 0.593524,1.3219407 1.321942,1.3219407 0.741905,0 1.338802,-0.6103858 1.338802,-1.3388021 0,-0.7284171 -0.593525,-1.338803 -1.338802,-1.338803 -0.519335,0 -0.967851,0.31362407 -1.190422,0.7419059 L 9.0697034,0.45785314 C 8.9044607,0.41401156 8.7425897,0.53204005 8.69875,0.69728559 L 7.673571,5.3375692 C 5.8896248,5.4117561 4.284411,5.947956 3.077127,6.780914 2.7500143,6.4403115 2.2880098,6.2312291 1.7821646,6.2312291 c -1.87499816,0 -2.48875667,2.5157351 -0.7722568,3.3756713 -0.0607001,0.2664118 -0.0876832,0.5496846 -0.0876832,0.8329576 0,2.825986 3.1834502,5.115779 7.091945,5.115779 3.9253564,0 7.1088064,-2.289792 7.1088064,-5.115779 0,-0.283273 -0.03034,-0.5800355 -0.10454,-0.8464472 1.682777,-0.863308 1.062274,-3.3621817 -0.802608,-3.3621817 z M 3.7313535,9.7856318 c 0,-0.7419058 0.5935245,-1.338802 1.3388031,-1.338802 0.7284162,0 1.3219407,0.5935245 1.3219407,1.338802 0,0.7284172 -0.5935245,1.3219412 -1.3219407,1.3219412 -0.7419059,0.0034 -1.3388031,-0.593524 -1.3388031,-1.3219412 z m 7.2268375,3.1531002 c -1.2275175,1.227517 -4.6908684,1.227517 -5.9183854,0 -0.1348917,-0.118031 -0.1348917,-0.327113 0,-0.462006 0.1180304,-0.11803 0.3271128,-0.11803 0.4451431,0 0.9374996,0.961105 4.0467594,0.977968 5.0247263,0 0.11803,-0.11803 0.327113,-0.11803 0.445144,0 0.138264,0.134893 0.138264,0.343975 0.0034,0.462006 z m -0.02698,-1.827786 c -0.728417,0 -1.3219413,-0.593526 -1.3219413,-1.3219415 0,-0.7419059 0.5935243,-1.338803 1.3219413,-1.338803 0.741905,0 1.338803,0.5935245 1.338803,1.338803 -0.0034,0.7250445 -0.596898,1.3219415 -1.338803,1.3219415 z"
     fill="#ffffff" />
</svg>
