<svg xmlns="http://www.w3.org/2000/svg" version="1.1" viewBox="0 0 16 16"><path style="stroke-width:.0357142" id="path2" fill="#fff" d="m 4.5743251,13.712793 c 0,1.263175 -1.0239968,2.287171 -2.2871714,2.287171 -1.2631747,0 -2.287135769731,-1.023996 -2.287135769731,-2.287171 0,-1.263175 1.023996769731,-2.287172 2.287171469731,-2.287172 1.2631746,0 2.2871357,1.024033 2.2871357,2.287172 z m 6.2735519,1.687495 C 10.549521,9.8788761 6.1269989,5.4507831 0.59969464,5.1521051 0.27344565,5.1344621 1.7930269e-5,5.3966041 1.7930269e-5,5.7233181 v 1.716744 c 0,0.300535 0.231784989731,0.55257 0.531676919731,0.57207 3.99398755,0.260142 7.19544195,3.4536319 7.45611965,7.4561199 0.019536,0.299892 0.2715706,0.531677 0.5720697,0.531677 h 1.7167448 c 0.326749,3.5e-5 0.588891,-0.273392 0.571248,-0.599641 z m 5.151734,0.01028 C 15.699826,7.0598851 8.9808829,0.30162008 0.58940896,3.7107617e-4 0.26690996,-0.01119992 1.7930269e-5,0.24933508 1.7930269e-5,0.57201208 V 2.2887211 c 0,0.308035 0.244106389731,0.558749 0.551891139731,0.571391 C 7.3797093,3.1400761 12.859978,8.6213801 13.139906,15.448109 13.152516,15.755894 13.403226,16 13.711297,16 h 1.716709 c 0.322642,-3.6e-5 0.583177,-0.266928 0.571605,-0.589427 z"/></svg>