<svg xmlns="http://www.w3.org/2000/svg" version="1.1" viewBox="0 0 16 16"><path style="stroke-width:.0312501" id="path2" fill="#fff" d="m 14.355367,4.7410965 c 0.01016,0.142126 0.01016,0.284283 0.01016,0.426408 0,4.335017 -3.299482,9.3299745 -9.3299741,9.3299745 -1.8578822,0 -3.583764,-0.538097 -5.0355509,-1.472068 0.26396978,0.03044 0.51775202,0.04059 0.79187809,0.04059 1.53297471,0 2.94416771,-0.517752 4.07107841,-1.401007 -1.4416306,-0.03047 -2.6497604,-0.974629 -3.066012,-2.2741335 0.2030633,0.03044 0.4060954,0.05075 0.6193149,0.05075 0.2944074,0 0.5888461,-0.04063 0.8629409,-0.111657 -1.5025411,-0.30459 -2.62948301,-1.624377 -2.62948301,-3.218289 v -0.04059 C 1.0862522,6.3147275 1.5939105,6.4670095 2.1319438,6.4872905 1.2486904,5.8984445 0.67003187,4.8933785 0.67003187,3.7563115 c 0,-0.609127 0.16240688,-1.167505 0.44668923,-1.654819 1.6142251,1.989852 4.0406408,3.289325 6.7614327,3.431482 -0.05075,-0.243657 -0.081219,-0.497439 -0.081219,-0.751253 0,-1.807132 1.4619432,-3.2792 3.2792002,-3.2792 0.94416,0 1.796945,0.395939 2.395947,1.035535 0.741097,-0.142125 1.451756,-0.416251 2.081227,-0.791878 -0.243689,0.761441 -0.761441,1.401037 -1.441631,1.807101 0.659909,-0.07103 1.299505,-0.253813 1.88832,-0.507596 -0.446627,0.649722 -1.005035,1.22838 -1.644631,1.695413 z"/></svg>